<?xml version="1.0" encoding="UTF-8"?>
<svg id="Layer_1" data-name="Layer 1" xmlns="http://www.w3.org/2000/svg" xmlns:xlink="http://www.w3.org/1999/xlink" viewBox="240 200 600 500">
  <defs>
    <style>
      .cls-1 {
        fill: #5da0af;
      }

      .cls-1, .cls-2, .cls-3 {
        stroke: #fff;
        stroke-miterlimit: 10;
        stroke-width: 10px;
      }

      .cls-4 {
        fill: #80bf7c;
      }

      .cls-5, .cls-3 {
        fill: none;
      }

      .cls-6 {
        fill: #73995b;
      }

      .cls-2 {
        fill: #ff6700;
      }

      .cls-7 {
        clip-path: url(#clippath);
      }
    </style>
    <clipPath id="clippath">
      <polygon class="cls-5" points="768.6 362 536.4 273.9 311.6 362 364.2 362 283.8 579.8 536.4 674.2 796.2 579.8 715.4 362 768.6 362"/>
    </clipPath>
  </defs>
  <g class="cls-7">
    <path class="cls-6" d="M274.9,583.2l472.9-160.3s59.2,161.4,56.2,160.3-279.8,102.1-279.8,102.1l-249.2-102.1Z"/>
    <path class="cls-4" d="M594.5,461.2c8.2-1,190-57.2,190-57.2l18.4-73.5-198.1-61.1-10.2,191.9Z"/>
    <polygon class="cls-6" points="401.5 266.6 429.1 403.5 566.3 438.6 579.2 266.6 401.5 266.6"/>
    <polygon class="cls-4" points="385.2 266.6 418.9 409.6 565.9 448.4 565.9 474.1 260.6 575 293.3 329.9 385.2 266.6"/>
  </g>
  <polygon class="cls-1" points="648.8 493.2 623.9 551.9 504.1 571.2 434.9 512.6 499.8 390.4 608 399.1 648.8 493.2"/>
  <polyline class="cls-3" points="623.9 551.9 645.6 570.7 580.4 597.2 536.4 674.2"/>
  <polygon class="cls-5" points="768.6 362 536.4 273.9 311.6 362 364.2 362 283.8 579.8 536.4 674.2 796.2 579.8 715.4 362 768.6 362"/>
  <path class="cls-2" d="M540,202.2c-54.2,0-98.1,43.9-98.1,98.1s98.1,170.2,98.1,170.2c0,0,98.1-116,98.1-170.2s-43.9-98.1-98.1-98.1ZM540,347.7c-26.2,0-47.4-21.2-47.4-47.4s21.2-47.4,47.4-47.4,47.4,21.2,47.4,47.4-21.2,47.4-47.4,47.4Z"/>
</svg>