<?xml version="1.0" encoding="UTF-8"?>
<svg id="Layer_2" xmlns="http://www.w3.org/2000/svg" version="1.1" viewBox="0 0 1080 1080">
  <!-- Generator: Adobe Illustrator 29.6.1, SVG Export Plug-In . SVG Version: 2.1.1 Build 9)  -->
  <defs>
    <style>
      .st0 {
        fill: #207bc6;
      }

      .st1 {
        fill: #1fa9c9;
      }
    </style>
  </defs>
  <path class="st0" d="M595.19,670.82h283.12c-7,24.48-18.01,46.84-33.03,67.11-15.04,20.28-32.69,37.75-52.96,52.43-20.28,14.68-42.65,26.05-67.11,34.08-24.48,8.04-49.99,12.06-76.55,12.06-34.96,0-67.63-7.16-98.04-21.5-30.41-14.32-56.99-33.38-79.7-57.15-22.72-23.76-40.73-51.38-54-82.84-13.29-31.46-19.92-64.65-19.92-99.62l-.1-39.06h-146.7v39.06c0,54.53,10.55,105.91,31.69,154.15,21.12,48.23,49.78,90.36,85.98,126.35,36.19,36.01,78.42,64.49,126.65,85.46,48.24,20.97,99.62,31.46,154.15,31.46,49.63,0,97-8.39,142.09-25.16,45.09-16.78,84.94-40.01,119.54-69.73,34.6-29.71,62.92-65.18,84.94-106.43,22.02-41.24,35.13-85.99,39.32-134.22.69-5.59,1.05-13.8,1.05-24.64s.34-21.84,1.05-33.03c0-12.58.34-26.22,1.05-40.89h-442.51v132.12Z"/>
  <path class="st1" d="M818.79,107.19H64.57c-12.3,0-22.27,9.97-22.27,22.27v406.88h178.67v-254.07c0-12.3,9.97-22.27,22.27-22.27h486.62l88.95-152.81Z"/>
  <g>
    <rect class="st1" x="309.68" y="322.65" width="46.49" height="46.49" rx=".75" ry=".75"/>
    <rect class="st1" x="370.66" y="322.65" width="46.49" height="46.49" rx=".75" ry=".75"/>
    <rect class="st1" x="309.68" y="378.57" width="46.49" height="46.49" rx=".75" ry=".75"/>
    <rect class="st1" x="370.66" y="378.57" width="46.49" height="46.49" rx=".75" ry=".75"/>
  </g>
</svg>